<?xml version="1.0" encoding="UTF-8"?>
<svg xmlns="http://www.w3.org/2000/svg" xmlns:xlink="http://www.w3.org/1999/xlink" width="132px" height="30px" viewBox="0 0 132 30" version="1.1">
  <!-- Generator: Sketch 54.1 (76490) - https://sketchapp.com -->
  <title>logo_hesso_master_tablet</title>
  <desc>Created with Sketch.</desc>
  <g id="Symbols" stroke="none" stroke-width="1" fill="none" fill-rule="evenodd">
    <g id="logo_hesso_master_tablet" fill="#1C2E36">
      <path d="M101.095944,16.7287745 C102.803009,17.2518193 106.684902,18.5019143 106.684902,22.7743453 C106.684902,24.3866174 106.045088,26.1993 104.295907,27.5302782 C102.034158,29.3438596 99.0053493,29.4642857 97.4694388,29.4642857 C95.1664692,29.4642857 93.2461331,29.0616671 91.6259895,28.4568404 C91.4127184,28.3768559 91.1985512,28.2959726 90.9852801,28.2150894 L90.7729051,27.8520137 C90.9431635,26.2801832 90.9431635,26.0779752 91.0282928,24.4666019 L91.454835,24.3461758 C92.2227902,24.9096621 94.1001137,26.2801832 97.3852057,26.2801832 C100.754531,26.2801832 101.992041,24.5070435 101.992041,23.2578472 C101.992041,21.4038242 100.158626,20.7998962 97.5554641,19.9928615 L96.1907082,19.5498013 C94.4406306,19.0258578 90.6017505,17.8575447 90.6017505,13.7073372 C90.6017505,9.5553323 94.4406306,7.5 99.2186204,7.5 C102.377363,7.5 104.594307,8.34657762 105.362262,8.62787146 L105.576429,8.91096271 C105.406171,10.4010112 105.362262,10.5618789 105.233224,12.0941665 L104.850591,12.2550342 C103.783339,11.6097659 102.120183,10.6427622 99.3467623,10.6427622 C98.7499616,10.6427622 98.1522648,10.6832038 97.5124515,10.8449702 C96.2328248,11.1667056 95.1664692,12.0132833 95.1664692,13.2624795 C95.1664692,14.9960764 96.9147547,15.5200199 99.5618256,16.2848156 L101.095944,16.7287745 Z" id="Fill-1"></path>
      <path d="M131.534039,18.29388 C131.447576,15.46968 130.89097,12.64368 128.918533,10.50528 C127.031657,8.48658 124.158563,7.59918 121.243138,7.59918 C116.954212,7.59918 114.469301,9.25428 113.266925,10.42428 C110.395632,13.12878 110.309169,17.08428 110.309169,18.61698 C110.309169,19.94898 110.3524,24.06558 113.266925,26.85018 C114.638624,28.18308 117.083006,29.55558 120.941418,29.55558 C123.944207,29.55558 126.474151,28.86888 128.361026,27.09228 C129.775957,25.76118 130.674813,24.18708 131.145856,22.20978 C131.447576,20.99928 131.534039,19.66638 131.534039,18.29388 M126.860533,18.45588 C126.902863,19.30278 126.860533,22.00818 125.872512,23.82348 C124.630507,26.04378 122.572507,26.52798 120.986451,26.52798 C120.127225,26.52798 119.226568,26.36598 118.454706,26.00328 C115.068238,24.38868 115.025006,20.31168 115.025006,18.69798 C115.025006,17.00328 115.154701,14.66238 116.312945,13.00728 C117.813438,10.74738 120.214589,10.66638 121.028782,10.66638 C123.429932,10.66638 124.801632,11.71578 125.616726,12.96678 C126.688507,14.74338 126.860533,17.44698 126.860533,18.45588" id="Fill-3"></path>
      <path d="M85.2407002,18.2142857 C85.2407002,19.6934545 84.0402109,20.8928571 82.559702,20.8928571 C81.0791932,20.8928571 79.8796499,19.6934545 79.8796499,18.2142857 C79.8796499,16.7360621 81.0791932,15.5357143 82.559702,15.5357143 C84.0402109,15.5357143 85.2407002,16.7360621 85.2407002,18.2142857" id="Fill-6"></path>
      <path d="M26.2934536,0.594363636 C26.2506188,3.73436364 26.2068726,5.64981818 26.2068726,8.50345455 C26.2068726,15.3516364 26.3371998,22.1607273 26.684435,29.0089091 L26.4666155,29.2534545 C22.7791779,29.2125455 21.9115455,29.2534545 18.6570127,29.3761818 L18.4401046,29.1307273 C18.6570127,23.3834545 18.6570127,22.038 18.5704317,16.5352727 C16.835167,16.4943636 15.0999022,16.4534545 13.363726,16.4534545 C11.6722074,16.4534545 10.0663584,16.4943636 8.15793173,16.5752727 C8.20076652,22.4861818 8.24360131,23.9543636 8.50425558,29.0089091 L8.28734748,29.2534545 C4.47049409,29.2125455 3.68853129,29.2534545 0.52149081,29.3761818 L0.303671335,29.1307273 C0.391163676,25.708 0.477744639,23.7107273 0.477744639,20.0407273 C0.477744639,9.93163636 0.217090372,4.91618182 0.000182275711,0.716181818 L0.260836543,0.471636364 C4.03576652,0.471636364 4.68649081,0.471636364 8.0276046,0.349818182 L8.24360131,0.594363636 L8.15793173,11.3570909 C9.6762884,11.3570909 11.2374799,11.398 12.7558365,11.398 C14.7089208,11.398 16.6173475,11.3570909 18.5266856,11.3161818 C18.4847621,6.50527273 18.4847621,5.32345455 18.1794503,0.716181818 L18.3972698,0.471636364 C22.0418726,0.471636364 22.6051046,0.471636364 26.0765455,0.349818182 L26.2934536,0.594363636 Z" id="Fill-8"></path>
      <path d="M51.4103709,22.966882 C49.7599753,23.7792839 47.8059433,24.7130479 44.6382779,24.7130479 C42.0341177,24.7130479 40.2533317,23.941402 39.2120324,22.4787163 C38.5609923,21.6264642 38.4315138,20.8140623 38.257356,20.0007547 L52.2784243,19.7580304 L52.5382932,19.4736445 C52.4963495,17.4838486 52.4525821,15.452391 51.8453094,13.4218391 C50.3253042,8.62893974 46.9816573,7.65441976 45.5063313,7.32927786 C44.4212646,7.04579761 43.4228208,6.96428571 42.424377,6.96428571 C35.6085166,6.96428571 31.0940919,11.1476573 31.0940919,18.1739826 C31.0940919,20.0822666 31.4424074,22.0720626 32.1363031,23.494898 C34.6547521,28.9770257 40.5587917,29.4642857 43.6836015,29.4642857 C47.2862055,29.4642857 48.8499781,28.8547579 51.1495902,28.0025057 L51.4103709,27.6773638 L51.7140072,23.0891499 L51.4103709,22.966882 Z M38.257356,15.696021 C38.3868346,14.4371151 38.6904709,12.7317051 40.3408665,11.7571851 C40.862428,11.4320432 41.4706125,11.3097754 42.0778851,11.3097754 C43.5103556,11.3097754 44.3774972,12.0008151 44.8552912,12.7317051 C45.4634757,13.6256189 45.5063313,14.5992332 45.5063313,15.5339029 L38.257356,15.696021 Z" id="Fill-11"></path>
      <path d="M69.412178,15.696021 C71.7639788,16.5500845 75.0547046,17.7274786 75.0547046,22.1943304 C75.0547046,22.4787163 75.0547046,22.7621966 75.0098229,23.0891499 C74.2414483,28.8955138 67.8323424,29.4642857 64.5838054,29.4642857 C61.4654253,29.4642857 59.6692599,28.8149076 57.5750801,28.0831119 L57.3632385,27.7181198 C57.5337889,25.6875679 57.5750801,25.2410639 57.6621506,23.1290001 L58.0454403,22.966882 C58.6854532,23.454142 59.029247,23.738528 59.7563304,24.1035201 C61.3361661,24.875166 63.0883474,25.2410639 64.2848933,25.2410639 C66.6770876,25.2410639 67.6608943,24.1442761 67.6608943,23.1290001 C67.6608943,21.6663145 65.7794537,21.0567866 64.6268918,20.6927002 L63.0021745,20.1230226 C60.9941675,19.3921326 57.4476161,18.0924707 57.4476161,13.746981 C57.4476161,12.1221773 58.0454403,10.9040273 58.6010756,10.1722316 C60.8236171,7.12640382 65.0119768,6.96428571 67.105259,6.96428571 C69.8834358,6.96428571 71.6356172,7.45064002 73.6418289,7.97956165 L73.857261,8.22228596 L73.4299873,12.6501932 L73.0449023,12.7724611 C71.9776157,12.1221773 70.3098119,11.0670511 67.7039808,11.0670511 C65.0541656,11.0670511 64.7121671,12.4065632 64.7121671,12.8938232 C64.7121671,14.031367 65.8656266,14.4769653 67.3188958,14.9642253 L69.412178,15.696021 Z" id="Fill-13"></path>
    </g>
  </g>
</svg>
